<svg width="24" height="24" viewBox="0 0 24 24" fill="none" xmlns="http://www.w3.org/2000/svg">
  <g stroke="#356A7C" stroke-width="1.5" stroke-linecap="round" stroke-linejoin="round">
    <path d="M6 7C6 6.12 7.79 5.4 10 5.4S14 6.12 14 7s-1.79 1.6-4 1.6S6 7.88 6 7Z"/>
    <path d="M6 7v2.8c0 0.88 1.79 1.6 4 1.6s4-0.72 4-1.6V7"/>
    <path d="M6 9.8v2.7c0 0.88 1.79 1.6 4 1.6 0.48 0 0.95-0.04 1.38-0.11"/>
    <path d="M19 10.4a5.8 5.8 0 0 0-2.02-2.3 5.9 5.9 0 0 0-3.05-0.99"/>
    <path d="m19.1 7.7-0.1 2.7-2.6-0.2"/>
    <path d="M15.2 18.4a5.93 5.93 0 0 0 2.95-1.36A5.83 5.83 0 0 0 20 14.2"/>
    <path d="m15.8 15.9-0.6 2.5 2.5 0.6"/>
    <path d="M13.3 17.9a5.92 5.92 0 0 1-3.3-0.17A5.8 5.8 0 0 1 7.3 16"/>
  </g>
</svg>
